<svg xmlns="http://www.w3.org/2000/svg" version="1.0" viewBox="0 0 425 200" opacity=".33">
  <path d="M1182 2638 c-29 -94 -53 -173 -55 -174 -1 -1 -42 -18 -92 -37 -49 -19 -103 -40 -120 -47 -28 -11 -39 -6 -189 73 l-160 85 -135 -130 c-75 -71 -137 -134 -139 -139 -2 -4 35 -78 83 -163 l85 -156 -28 -57 c-16 -32 -39 -85 -51 -119 l-23 -61 -96 -27 c-53 -15 -134 -38 -180 -52 l-82 -25 0 -193 0 -193 148 -43 c81 -23 161 -47 177 -51 26 -7 33 -16 43 -55 7 -25 28 -80 48 -123 l35 -78 -85 -155 c-47 -86 -86 -160 -86 -165 0 -5 62 -68 138 -140 l139 -131 158 84 158 84 91 -38 c50 -22 108 -45 128 -51 34 -11 38 -17 58 -84 12 -40 35 -118 52 -175 l31 -102 197 0 197 0 53 175 53 175 36 11 c20 6 77 29 127 51 l92 39 148 -80 c82 -44 154 -81 161 -83 6 -2 74 57 151 129 l140 133 -89 162 -90 163 35 75 c18 41 40 94 47 118 7 23 17 46 23 51 6 4 86 30 179 56 l167 48 0 193 0 193 -82 25 c-46 14 -127 37 -180 52 l-96 27 -23 61 c-12 34 -35 87 -50 118 l-29 58 85 154 c47 84 85 158 85 163 0 5 -62 68 -138 140 l-139 131 -159 -85 c-150 -80 -161 -84 -189 -73 -16 7 -71 28 -121 48 l-92 35 -53 173 -52 174 -197 0 -196 0 -52 -172z m112 -791 c-22 -64 -29 -76 -60 -90 -19 -10 -57 -37 -83 -62 -48 -45 -49 -45 -120 -45 l-72 0 18 31 c52 90 157 175 268 216 33 12 63 22 67 22 4 1 -4 -32 -18 -72z m337 43 c96 -36 215 -135 255 -212 l15 -28 -72 0 c-71 0 -72 0 -120 45 -26 25 -64 52 -83 62 -31 14 -38 26 -60 90 l-25 74 22 -7 c12 -3 43 -14 68 -24z m-591 -568 c0 -7 9 -35 21 -61 l20 -49 -27 -77 -27 -76 -23 28 c-59 73 -104 198 -104 291 l0 52 70 -47 c38 -27 69 -54 70 -61z m910 -35 c-12 -57 -59 -158 -94 -201 l-23 -28 -26 76 -26 77 23 62 c21 55 31 67 87 108 l64 46 3 -45 c2 -24 -2 -67 -8 -95z m-391 -319 c34 -23 61 -45 61 -49 0 -16 -102 -34 -190 -34 -92 0 -194 19 -188 36 2 4 28 26 58 48 51 37 60 39 127 40 68 1 74 -1 132 -41z"/>
</svg>
